<mxfile host="app.diagrams.net" modified="2021-10-23T11:19:21.717Z" agent="5.0 (Windows NT 10.0; Win64; x64) AppleWebKit/537.36 (KHTML, like Gecko) Chrome/95.0.4638.54 Safari/537.36" etag="psD3j8IATvwWZOTp5GYv" version="15.5.8" type="github">
  <diagram id="q-0XigdrmwmGiF80oo4d" name="Page-1">
    <mxGraphModel dx="1427" dy="1437" grid="1" gridSize="10" guides="1" tooltips="1" connect="1" arrows="1" fold="1" page="1" pageScale="1" pageWidth="827" pageHeight="1169" math="0" shadow="0">
      <root>
        <mxCell id="0" />
        <mxCell id="1" parent="0" />
        <mxCell id="UyfyDT9492xOrgT1omKh-13" value="customer" style="swimlane;childLayout=stackLayout;horizontal=1;startSize=30;horizontalStack=0;rounded=1;fontSize=14;fontStyle=0;strokeWidth=2;resizeParent=0;resizeLast=1;shadow=0;dashed=0;align=center;" parent="1" vertex="1">
          <mxGeometry x="-190" y="-700" width="160" height="60" as="geometry" />
        </mxCell>
        <mxCell id="UyfyDT9492xOrgT1omKh-21" value="&lt;u&gt;id_customer&lt;br&gt;&lt;/u&gt;" style="text;html=1;align=left;verticalAlign=middle;resizable=0;points=[];autosize=1;strokeColor=none;fillColor=none;" parent="UyfyDT9492xOrgT1omKh-13" vertex="1">
          <mxGeometry y="30" width="160" height="30" as="geometry" />
        </mxCell>
        <mxCell id="UyfyDT9492xOrgT1omKh-24" value="information_of_purchase" style="swimlane;childLayout=stackLayout;horizontal=1;startSize=30;horizontalStack=0;rounded=1;fontSize=14;fontStyle=0;strokeWidth=2;resizeParent=0;resizeLast=1;shadow=0;dashed=0;align=center;" parent="1" vertex="1">
          <mxGeometry x="300" y="-780" width="160" height="120" as="geometry" />
        </mxCell>
        <mxCell id="UyfyDT9492xOrgT1omKh-27" value="&lt;u&gt;tracking_number&lt;br&gt;&lt;/u&gt;data_period&lt;br&gt;season&lt;br&gt;region&lt;br&gt;&amp;nbsp; &amp;nbsp;store&lt;br&gt;method_of_payment" style="text;html=1;align=left;verticalAlign=middle;resizable=0;points=[];autosize=1;strokeColor=none;fillColor=none;" parent="UyfyDT9492xOrgT1omKh-24" vertex="1">
          <mxGeometry y="30" width="160" height="90" as="geometry" />
        </mxCell>
        <mxCell id="UyfyDT9492xOrgT1omKh-28" value="contract" style="swimlane;childLayout=stackLayout;horizontal=1;startSize=30;horizontalStack=0;rounded=1;fontSize=14;fontStyle=0;strokeWidth=2;resizeParent=0;resizeLast=1;shadow=0;dashed=0;align=center;" parent="1" vertex="1">
          <mxGeometry x="235" y="-130" width="160" height="85" as="geometry" />
        </mxCell>
        <mxCell id="20g4zVHKDqV1X-s-3AL7-113" value="" style="endArrow=none;html=1;rounded=0;" edge="1" parent="UyfyDT9492xOrgT1omKh-28">
          <mxGeometry width="50" height="50" relative="1" as="geometry">
            <mxPoint x="5" y="50" as="sourcePoint" />
            <mxPoint x="85" y="50" as="targetPoint" />
          </mxGeometry>
        </mxCell>
        <mxCell id="UyfyDT9492xOrgT1omKh-29" value="contract_id&#xa;account_number&#xa;duration" style="align=left;strokeColor=none;fillColor=none;spacingLeft=4;fontSize=12;verticalAlign=top;resizable=0;rotatable=0;part=1;fontStyle=0" parent="UyfyDT9492xOrgT1omKh-28" vertex="1">
          <mxGeometry y="30" width="160" height="55" as="geometry" />
        </mxCell>
        <mxCell id="UyfyDT9492xOrgT1omKh-32" value="product" style="swimlane;childLayout=stackLayout;horizontal=1;startSize=30;horizontalStack=0;rounded=1;fontSize=14;fontStyle=0;strokeWidth=2;resizeParent=0;resizeLast=1;shadow=0;dashed=0;align=center;" parent="1" vertex="1">
          <mxGeometry x="240" y="-460" width="110" height="120" as="geometry" />
        </mxCell>
        <mxCell id="20g4zVHKDqV1X-s-3AL7-110" value="" style="endArrow=none;html=1;rounded=0;" edge="1" parent="UyfyDT9492xOrgT1omKh-32">
          <mxGeometry width="50" height="50" relative="1" as="geometry">
            <mxPoint x="10" y="50" as="sourcePoint" />
            <mxPoint x="60" y="50" as="targetPoint" />
            <Array as="points">
              <mxPoint y="50" />
            </Array>
          </mxGeometry>
        </mxCell>
        <mxCell id="UyfyDT9492xOrgT1omKh-33" value="prod_id&#xa;category&#xa;type_of_product&#xa;manufacturer&#xa;storage_location" style="align=left;strokeColor=none;fillColor=none;spacingLeft=4;fontSize=12;verticalAlign=top;resizable=0;rotatable=0;part=1;fontStyle=0" parent="UyfyDT9492xOrgT1omKh-32" vertex="1">
          <mxGeometry y="30" width="110" height="90" as="geometry" />
        </mxCell>
        <mxCell id="UyfyDT9492xOrgT1omKh-34" value="card_details" style="swimlane;childLayout=stackLayout;horizontal=1;startSize=30;horizontalStack=0;rounded=1;fontSize=14;fontStyle=0;strokeWidth=2;resizeParent=0;resizeLast=1;shadow=0;dashed=0;align=center;" parent="1" vertex="1">
          <mxGeometry x="-230" y="-329.63" width="130" height="120" as="geometry" />
        </mxCell>
        <mxCell id="20g4zVHKDqV1X-s-3AL7-116" value="" style="endArrow=none;html=1;rounded=0;" edge="1" parent="UyfyDT9492xOrgT1omKh-34">
          <mxGeometry width="50" height="50" relative="1" as="geometry">
            <mxPoint x="10" y="49.389999999999986" as="sourcePoint" />
            <mxPoint x="90" y="49.389999999999986" as="targetPoint" />
          </mxGeometry>
        </mxCell>
        <mxCell id="UyfyDT9492xOrgT1omKh-35" value="card_number&#xa;owners_name&#xa;data&#xa;cvv&#xa;brend" style="align=left;strokeColor=none;fillColor=none;spacingLeft=4;fontSize=12;verticalAlign=top;resizable=0;rotatable=0;part=1;" parent="UyfyDT9492xOrgT1omKh-34" vertex="1">
          <mxGeometry y="30" width="130" height="90" as="geometry" />
        </mxCell>
        <mxCell id="3HAX_75kNHLcUPMCTGFj-2" value="" style="endArrow=classic;html=1;rounded=0;exitX=0;exitY=0.5;exitDx=0;exitDy=0;entryX=0.998;entryY=0.407;entryDx=0;entryDy=0;entryPerimeter=0;startArrow=none;" parent="1" source="20g4zVHKDqV1X-s-3AL7-8" target="UyfyDT9492xOrgT1omKh-13" edge="1">
          <mxGeometry width="50" height="50" relative="1" as="geometry">
            <mxPoint x="250" y="-490" as="sourcePoint" />
            <mxPoint x="-20" y="-550" as="targetPoint" />
            <Array as="points" />
          </mxGeometry>
        </mxCell>
        <mxCell id="3HAX_75kNHLcUPMCTGFj-4" value="" style="endArrow=classic;html=1;rounded=0;exitX=0;exitY=0.5;exitDx=0;exitDy=0;entryX=1.01;entryY=0.616;entryDx=0;entryDy=0;entryPerimeter=0;startArrow=none;" parent="1" source="20g4zVHKDqV1X-s-3AL7-6" target="UyfyDT9492xOrgT1omKh-21" edge="1">
          <mxGeometry width="50" height="50" relative="1" as="geometry">
            <mxPoint x="250" y="-490" as="sourcePoint" />
            <mxPoint x="300" y="-540" as="targetPoint" />
            <Array as="points">
              <mxPoint x="10" y="-651" />
            </Array>
          </mxGeometry>
        </mxCell>
        <mxCell id="3HAX_75kNHLcUPMCTGFj-6" value="" style="endArrow=classic;html=1;rounded=0;exitX=0;exitY=0.5;exitDx=0;exitDy=0;startArrow=none;" parent="1" source="20g4zVHKDqV1X-s-3AL7-2" edge="1">
          <mxGeometry width="50" height="50" relative="1" as="geometry">
            <mxPoint x="250" y="-490" as="sourcePoint" />
            <mxPoint x="-70" y="-640" as="targetPoint" />
            <Array as="points" />
          </mxGeometry>
        </mxCell>
        <mxCell id="3HAX_75kNHLcUPMCTGFj-9" value="shipping_company" style="swimlane;childLayout=stackLayout;horizontal=1;startSize=30;horizontalStack=0;rounded=1;fontSize=14;fontStyle=0;strokeWidth=2;resizeParent=0;resizeLast=1;shadow=0;dashed=0;align=center;" parent="1" vertex="1">
          <mxGeometry x="-180" y="-150" width="160" height="85" as="geometry" />
        </mxCell>
        <mxCell id="20g4zVHKDqV1X-s-3AL7-115" value="" style="endArrow=none;html=1;rounded=0;" edge="1" parent="3HAX_75kNHLcUPMCTGFj-9">
          <mxGeometry width="50" height="50" relative="1" as="geometry">
            <mxPoint y="50" as="sourcePoint" />
            <mxPoint x="100" y="50" as="targetPoint" />
          </mxGeometry>
        </mxCell>
        <mxCell id="3HAX_75kNHLcUPMCTGFj-10" value="name_company&#xa;delivery_method" style="align=left;strokeColor=none;fillColor=none;spacingLeft=4;fontSize=12;verticalAlign=top;resizable=0;rotatable=0;part=1;fontStyle=0" parent="3HAX_75kNHLcUPMCTGFj-9" vertex="1">
          <mxGeometry y="30" width="160" height="55" as="geometry" />
        </mxCell>
        <mxCell id="3HAX_75kNHLcUPMCTGFj-12" value="" style="endArrow=none;html=1;rounded=0;startArrow=none;exitX=0.5;exitY=0;exitDx=0;exitDy=0;entryX=0.427;entryY=0.993;entryDx=0;entryDy=0;entryPerimeter=0;" parent="1" source="20g4zVHKDqV1X-s-3AL7-9" edge="1" target="20g4zVHKDqV1X-s-3AL7-59">
          <mxGeometry width="50" height="50" relative="1" as="geometry">
            <mxPoint x="-140" y="-260" as="sourcePoint" />
            <mxPoint x="-420" y="-250" as="targetPoint" />
            <Array as="points" />
          </mxGeometry>
        </mxCell>
        <mxCell id="3HAX_75kNHLcUPMCTGFj-13" value="" style="endArrow=classic;html=1;rounded=0;entryX=-0.021;entryY=0.398;entryDx=0;entryDy=0;entryPerimeter=0;exitX=0.5;exitY=1;exitDx=0;exitDy=0;startArrow=none;" parent="1" source="20g4zVHKDqV1X-s-3AL7-10" target="3HAX_75kNHLcUPMCTGFj-9" edge="1">
          <mxGeometry width="50" height="50" relative="1" as="geometry">
            <mxPoint x="-220" y="-870" as="sourcePoint" />
            <mxPoint x="-220" y="-180" as="targetPoint" />
            <Array as="points">
              <mxPoint x="-530" y="-116" />
            </Array>
          </mxGeometry>
        </mxCell>
        <mxCell id="3HAX_75kNHLcUPMCTGFj-19" value="" style="endArrow=classic;html=1;rounded=0;exitX=0.5;exitY=0;exitDx=0;exitDy=0;startArrow=none;entryX=1.014;entryY=0.783;entryDx=0;entryDy=0;entryPerimeter=0;" parent="1" source="20g4zVHKDqV1X-s-3AL7-4" target="UyfyDT9492xOrgT1omKh-27" edge="1">
          <mxGeometry width="50" height="50" relative="1" as="geometry">
            <mxPoint x="370" y="-580" as="sourcePoint" />
            <mxPoint x="420" y="-630" as="targetPoint" />
            <Array as="points">
              <mxPoint x="495" y="-680" />
            </Array>
          </mxGeometry>
        </mxCell>
        <mxCell id="20g4zVHKDqV1X-s-3AL7-10" value="shipp_purch" style="shape=rhombus;perimeter=rhombusPerimeter;whiteSpace=wrap;html=1;align=center;" vertex="1" parent="1">
          <mxGeometry x="-590" y="-910" width="120" height="60" as="geometry" />
        </mxCell>
        <mxCell id="20g4zVHKDqV1X-s-3AL7-11" value="" style="endArrow=none;html=1;rounded=0;entryX=1;entryY=0.5;entryDx=0;entryDy=0;exitX=0.5;exitY=0;exitDx=0;exitDy=0;" edge="1" parent="1" source="UyfyDT9492xOrgT1omKh-24" target="20g4zVHKDqV1X-s-3AL7-10">
          <mxGeometry width="50" height="50" relative="1" as="geometry">
            <mxPoint x="380" y="-780" as="sourcePoint" />
            <mxPoint x="-183.36000000000013" y="-116.17000000000007" as="targetPoint" />
            <Array as="points">
              <mxPoint x="380" y="-880" />
            </Array>
          </mxGeometry>
        </mxCell>
        <mxCell id="20g4zVHKDqV1X-s-3AL7-9" value="cust_shipp" style="shape=rhombus;perimeter=rhombusPerimeter;whiteSpace=wrap;html=1;align=center;" vertex="1" parent="1">
          <mxGeometry x="-480" y="-200" width="120" height="60" as="geometry" />
        </mxCell>
        <mxCell id="20g4zVHKDqV1X-s-3AL7-12" value="" style="endArrow=none;html=1;rounded=0;exitX=0.25;exitY=0;exitDx=0;exitDy=0;entryX=1;entryY=0.5;entryDx=0;entryDy=0;" edge="1" parent="1" source="3HAX_75kNHLcUPMCTGFj-9" target="20g4zVHKDqV1X-s-3AL7-9">
          <mxGeometry width="50" height="50" relative="1" as="geometry">
            <mxPoint x="-140" y="-150" as="sourcePoint" />
            <mxPoint x="-140" y="-370" as="targetPoint" />
            <Array as="points">
              <mxPoint x="-140" y="-170" />
            </Array>
          </mxGeometry>
        </mxCell>
        <mxCell id="20g4zVHKDqV1X-s-3AL7-8" value="cust_purchase" style="shape=rhombus;perimeter=rhombusPerimeter;whiteSpace=wrap;html=1;align=center;" vertex="1" parent="1">
          <mxGeometry x="100" y="-705" width="120" height="60" as="geometry" />
        </mxCell>
        <mxCell id="20g4zVHKDqV1X-s-3AL7-13" value="" style="endArrow=none;html=1;rounded=0;exitX=-0.019;exitY=0.352;exitDx=0;exitDy=0;exitPerimeter=0;entryX=0.5;entryY=0;entryDx=0;entryDy=0;" edge="1" parent="1" source="UyfyDT9492xOrgT1omKh-27" target="20g4zVHKDqV1X-s-3AL7-8">
          <mxGeometry width="50" height="50" relative="1" as="geometry">
            <mxPoint x="296.96000000000004" y="-718.3200000000002" as="sourcePoint" />
            <mxPoint x="180" y="-630" as="targetPoint" />
            <Array as="points">
              <mxPoint x="160" y="-718" />
            </Array>
          </mxGeometry>
        </mxCell>
        <mxCell id="20g4zVHKDqV1X-s-3AL7-4" value="purchase" style="shape=rhombus;perimeter=rhombusPerimeter;whiteSpace=wrap;html=1;align=center;" vertex="1" parent="1">
          <mxGeometry x="460" y="-630" width="70" height="50" as="geometry" />
        </mxCell>
        <mxCell id="20g4zVHKDqV1X-s-3AL7-2" value="cust_contract" style="shape=rhombus;perimeter=rhombusPerimeter;whiteSpace=wrap;html=1;align=center;" vertex="1" parent="1">
          <mxGeometry x="-70" y="-230" width="120" height="60" as="geometry" />
        </mxCell>
        <mxCell id="20g4zVHKDqV1X-s-3AL7-17" value="" style="endArrow=none;html=1;rounded=0;entryX=1;entryY=0.5;entryDx=0;entryDy=0;" edge="1" parent="1" target="20g4zVHKDqV1X-s-3AL7-2">
          <mxGeometry width="50" height="50" relative="1" as="geometry">
            <mxPoint x="230" y="-80" as="sourcePoint" />
            <mxPoint x="-70.7199999999998" y="-366.0799999999999" as="targetPoint" />
            <Array as="points">
              <mxPoint x="50" y="-80" />
            </Array>
          </mxGeometry>
        </mxCell>
        <mxCell id="20g4zVHKDqV1X-s-3AL7-18" value="provider" style="swimlane;childLayout=stackLayout;horizontal=1;startSize=30;horizontalStack=0;rounded=1;fontSize=14;fontStyle=0;strokeWidth=2;resizeParent=0;resizeLast=1;shadow=0;dashed=0;align=center;" vertex="1" parent="1">
          <mxGeometry x="560" y="-237.5" width="100" height="87.5" as="geometry" />
        </mxCell>
        <mxCell id="20g4zVHKDqV1X-s-3AL7-112" value="" style="endArrow=none;html=1;rounded=0;" edge="1" parent="20g4zVHKDqV1X-s-3AL7-18">
          <mxGeometry width="50" height="50" relative="1" as="geometry">
            <mxPoint y="50.75" as="sourcePoint" />
            <mxPoint x="70" y="51.25" as="targetPoint" />
          </mxGeometry>
        </mxCell>
        <mxCell id="20g4zVHKDqV1X-s-3AL7-19" value="id_provider &#xa;legal_address&#xa;phone_number&#xa;" style="align=left;strokeColor=none;fillColor=none;spacingLeft=4;fontSize=12;verticalAlign=top;resizable=0;rotatable=0;part=1;fontStyle=0" vertex="1" parent="20g4zVHKDqV1X-s-3AL7-18">
          <mxGeometry y="30" width="100" height="57.5" as="geometry" />
        </mxCell>
        <mxCell id="20g4zVHKDqV1X-s-3AL7-22" value="warehouse" style="swimlane;childLayout=stackLayout;horizontal=1;startSize=30;horizontalStack=0;rounded=1;fontSize=14;fontStyle=0;strokeWidth=2;resizeParent=0;resizeLast=1;shadow=0;dashed=0;align=center;" vertex="1" parent="1">
          <mxGeometry x="80" y="-230" width="130" height="87" as="geometry" />
        </mxCell>
        <mxCell id="20g4zVHKDqV1X-s-3AL7-114" value="" style="endArrow=none;html=1;rounded=0;" edge="1" parent="20g4zVHKDqV1X-s-3AL7-22">
          <mxGeometry width="50" height="50" relative="1" as="geometry">
            <mxPoint x="5" y="50" as="sourcePoint" />
            <mxPoint x="125" y="50" as="targetPoint" />
          </mxGeometry>
        </mxCell>
        <mxCell id="20g4zVHKDqV1X-s-3AL7-23" value="bill_of_lading_number&#xa;delivery_date&#xa;quantity&#xa;" style="align=left;strokeColor=none;fillColor=none;spacingLeft=4;fontSize=12;verticalAlign=top;resizable=0;rotatable=0;part=1;" vertex="1" parent="20g4zVHKDqV1X-s-3AL7-22">
          <mxGeometry y="30" width="130" height="57" as="geometry" />
        </mxCell>
        <mxCell id="20g4zVHKDqV1X-s-3AL7-27" value="" style="endArrow=classic;html=1;rounded=0;entryX=1;entryY=0.133;entryDx=0;entryDy=0;entryPerimeter=0;exitX=0;exitY=0.5;exitDx=0;exitDy=0;" edge="1" parent="1" source="20g4zVHKDqV1X-s-3AL7-4" target="UyfyDT9492xOrgT1omKh-32">
          <mxGeometry width="50" height="50" relative="1" as="geometry">
            <mxPoint x="490" y="-560" as="sourcePoint" />
            <mxPoint x="450" y="-590" as="targetPoint" />
            <Array as="points">
              <mxPoint x="380" y="-605" />
              <mxPoint x="380" y="-480" />
              <mxPoint x="380" y="-444" />
            </Array>
          </mxGeometry>
        </mxCell>
        <mxCell id="20g4zVHKDqV1X-s-3AL7-6" value="cust_prod" style="shape=rhombus;perimeter=rhombusPerimeter;whiteSpace=wrap;html=1;align=center;" vertex="1" parent="1">
          <mxGeometry x="10" y="-480" width="120" height="60" as="geometry" />
        </mxCell>
        <mxCell id="20g4zVHKDqV1X-s-3AL7-29" value="" style="endArrow=none;html=1;rounded=0;exitX=0;exitY=0.5;exitDx=0;exitDy=0;entryX=1.023;entryY=0.496;entryDx=0;entryDy=0;entryPerimeter=0;" edge="1" parent="1" source="UyfyDT9492xOrgT1omKh-32" target="20g4zVHKDqV1X-s-3AL7-6">
          <mxGeometry width="50" height="50" relative="1" as="geometry">
            <mxPoint x="240" y="-400" as="sourcePoint" />
            <mxPoint x="-16.320000000000164" y="-440.55999999999995" as="targetPoint" />
            <Array as="points">
              <mxPoint x="200" y="-400" />
              <mxPoint x="200" y="-450" />
            </Array>
          </mxGeometry>
        </mxCell>
        <mxCell id="20g4zVHKDqV1X-s-3AL7-71" value="" style="edgeStyle=orthogonalEdgeStyle;rounded=0;orthogonalLoop=1;jettySize=auto;html=1;" edge="1" parent="1" source="20g4zVHKDqV1X-s-3AL7-1">
          <mxGeometry relative="1" as="geometry">
            <mxPoint x="730" y="712.5" as="targetPoint" />
          </mxGeometry>
        </mxCell>
        <mxCell id="20g4zVHKDqV1X-s-3AL7-42" value="request" style="swimlane;childLayout=stackLayout;horizontal=1;startSize=30;horizontalStack=0;rounded=1;fontSize=14;fontStyle=0;strokeWidth=2;resizeParent=0;resizeLast=1;shadow=0;dashed=0;align=center;" vertex="1" parent="1">
          <mxGeometry x="550" y="-370" width="110" height="70" as="geometry" />
        </mxCell>
        <mxCell id="20g4zVHKDqV1X-s-3AL7-43" value="request_number&#xa;required_quantity" style="align=left;strokeColor=none;fillColor=none;spacingLeft=4;fontSize=12;verticalAlign=top;resizable=0;rotatable=0;part=1;fontStyle=0" vertex="1" parent="20g4zVHKDqV1X-s-3AL7-42">
          <mxGeometry y="30" width="110" height="40" as="geometry" />
        </mxCell>
        <mxCell id="20g4zVHKDqV1X-s-3AL7-111" value="" style="endArrow=none;html=1;rounded=0;" edge="1" parent="20g4zVHKDqV1X-s-3AL7-42">
          <mxGeometry width="50" height="50" relative="1" as="geometry">
            <mxPoint y="49.75999999999999" as="sourcePoint" />
            <mxPoint x="100" y="50" as="targetPoint" />
          </mxGeometry>
        </mxCell>
        <mxCell id="20g4zVHKDqV1X-s-3AL7-50" value="" style="endArrow=classic;html=1;rounded=0;exitX=0.5;exitY=1;exitDx=0;exitDy=0;entryX=0.5;entryY=0;entryDx=0;entryDy=0;startArrow=none;" edge="1" parent="1" source="20g4zVHKDqV1X-s-3AL7-81" target="20g4zVHKDqV1X-s-3AL7-22">
          <mxGeometry width="50" height="50" relative="1" as="geometry">
            <mxPoint x="330" y="-310" as="sourcePoint" />
            <mxPoint x="140" y="-240" as="targetPoint" />
            <Array as="points" />
          </mxGeometry>
        </mxCell>
        <mxCell id="20g4zVHKDqV1X-s-3AL7-51" value="" style="endArrow=classic;html=1;rounded=0;exitX=1;exitY=0.5;exitDx=0;exitDy=0;startArrow=none;" edge="1" parent="1" source="20g4zVHKDqV1X-s-3AL7-49">
          <mxGeometry width="50" height="50" relative="1" as="geometry">
            <mxPoint x="330" y="-310" as="sourcePoint" />
            <mxPoint x="560" y="-186" as="targetPoint" />
            <Array as="points" />
          </mxGeometry>
        </mxCell>
        <mxCell id="20g4zVHKDqV1X-s-3AL7-53" value="" style="endArrow=none;html=1;rounded=0;exitX=1;exitY=0.25;exitDx=0;exitDy=0;entryX=0;entryY=0.5;entryDx=0;entryDy=0;" edge="1" parent="1" source="20g4zVHKDqV1X-s-3AL7-23" target="20g4zVHKDqV1X-s-3AL7-49">
          <mxGeometry width="50" height="50" relative="1" as="geometry">
            <mxPoint x="210" y="-185.75" as="sourcePoint" />
            <mxPoint x="560" y="-181.25" as="targetPoint" />
            <Array as="points" />
          </mxGeometry>
        </mxCell>
        <mxCell id="20g4zVHKDqV1X-s-3AL7-54" value="" style="endArrow=classic;startArrow=none;html=1;rounded=0;entryX=0;entryY=0.25;entryDx=0;entryDy=0;exitX=0.5;exitY=0;exitDx=0;exitDy=0;" edge="1" parent="1" source="20g4zVHKDqV1X-s-3AL7-55" target="20g4zVHKDqV1X-s-3AL7-43">
          <mxGeometry width="50" height="50" relative="1" as="geometry">
            <mxPoint x="380" y="-320" as="sourcePoint" />
            <mxPoint x="380" y="-360" as="targetPoint" />
            <Array as="points">
              <mxPoint x="380" y="-330" />
            </Array>
          </mxGeometry>
        </mxCell>
        <mxCell id="20g4zVHKDqV1X-s-3AL7-55" value="ware_prov_req" style="shape=rhombus;perimeter=rhombusPerimeter;whiteSpace=wrap;html=1;align=center;" vertex="1" parent="1">
          <mxGeometry x="332.5" y="-305" width="95" height="60" as="geometry" />
        </mxCell>
        <mxCell id="20g4zVHKDqV1X-s-3AL7-56" value="" style="endArrow=none;startArrow=classic;html=1;rounded=0;entryX=0.5;entryY=1;entryDx=0;entryDy=0;" edge="1" parent="1" source="20g4zVHKDqV1X-s-3AL7-49" target="20g4zVHKDqV1X-s-3AL7-55">
          <mxGeometry width="50" height="50" relative="1" as="geometry">
            <mxPoint x="380" y="-209.6199999999999" as="sourcePoint" />
            <mxPoint x="550" y="-320" as="targetPoint" />
            <Array as="points" />
          </mxGeometry>
        </mxCell>
        <mxCell id="20g4zVHKDqV1X-s-3AL7-57" value="" style="triangle;whiteSpace=wrap;html=1;rotation=-179;" vertex="1" parent="1">
          <mxGeometry x="-310" y="-705" width="60" height="80" as="geometry" />
        </mxCell>
        <mxCell id="20g4zVHKDqV1X-s-3AL7-58" value="online_customer" style="swimlane;childLayout=stackLayout;horizontal=1;startSize=30;horizontalStack=0;rounded=1;fontSize=14;fontStyle=0;strokeWidth=2;resizeParent=0;resizeLast=1;shadow=0;dashed=0;align=center;" vertex="1" parent="1">
          <mxGeometry x="-490" y="-590" width="160" height="170" as="geometry" />
        </mxCell>
        <mxCell id="20g4zVHKDqV1X-s-3AL7-59" value="address&#xa;   country&#xa;   city&#xa;   postal_code&#xa;   street&#xa;      street_name&#xa;      apartment_number&#xa;{phone_number}&#xa;date_of_birth" style="align=left;strokeColor=none;fillColor=none;spacingLeft=4;fontSize=12;verticalAlign=top;resizable=0;rotatable=0;part=1;" vertex="1" parent="20g4zVHKDqV1X-s-3AL7-58">
          <mxGeometry y="30" width="160" height="140" as="geometry" />
        </mxCell>
        <mxCell id="20g4zVHKDqV1X-s-3AL7-63" value="offline_customer" style="swimlane;childLayout=stackLayout;horizontal=1;startSize=30;horizontalStack=0;rounded=1;fontSize=14;fontStyle=0;strokeWidth=2;resizeParent=0;resizeLast=1;shadow=0;dashed=0;align=center;" vertex="1" parent="1">
          <mxGeometry x="-490" y="-810" width="160" height="90" as="geometry" />
        </mxCell>
        <mxCell id="20g4zVHKDqV1X-s-3AL7-77" value="&lt;div&gt;&lt;span&gt;bonus_card&lt;/span&gt;&lt;/div&gt;&lt;div&gt;&lt;span&gt;&amp;nbsp; &amp;nbsp;name&lt;/span&gt;&lt;/div&gt;&lt;div&gt;&lt;span&gt;&amp;nbsp; &amp;nbsp;card_number&lt;/span&gt;&lt;/div&gt;&lt;div&gt;&lt;span&gt;&amp;nbsp; &amp;nbsp;amount_of_bonuses&lt;/span&gt;&lt;/div&gt;" style="text;html=1;strokeColor=none;fillColor=none;align=left;verticalAlign=middle;whiteSpace=wrap;rounded=0;" vertex="1" parent="20g4zVHKDqV1X-s-3AL7-63">
          <mxGeometry y="30" width="160" height="60" as="geometry" />
        </mxCell>
        <mxCell id="20g4zVHKDqV1X-s-3AL7-65" value="" style="endArrow=classic;html=1;rounded=0;exitX=0;exitY=0.5;exitDx=0;exitDy=0;entryX=0.75;entryY=1;entryDx=0;entryDy=0;startArrow=none;" edge="1" parent="1" source="20g4zVHKDqV1X-s-3AL7-75" target="20g4zVHKDqV1X-s-3AL7-59">
          <mxGeometry width="50" height="50" relative="1" as="geometry">
            <mxPoint x="-60" y="-440" as="sourcePoint" />
            <mxPoint x="-360" y="-237" as="targetPoint" />
            <Array as="points">
              <mxPoint x="-370" y="-280" />
            </Array>
          </mxGeometry>
        </mxCell>
        <mxCell id="20g4zVHKDqV1X-s-3AL7-66" value="" style="endArrow=none;html=1;rounded=0;entryX=0.009;entryY=0.215;entryDx=0;entryDy=0;entryPerimeter=0;exitX=0;exitY=0.5;exitDx=0;exitDy=0;" edge="1" parent="1" source="20g4zVHKDqV1X-s-3AL7-57" target="UyfyDT9492xOrgT1omKh-21">
          <mxGeometry width="50" height="50" relative="1" as="geometry">
            <mxPoint x="-250" y="-668" as="sourcePoint" />
            <mxPoint x="-190" y="-664" as="targetPoint" />
          </mxGeometry>
        </mxCell>
        <mxCell id="20g4zVHKDqV1X-s-3AL7-67" value="" style="endArrow=none;html=1;rounded=0;exitX=0.5;exitY=0;exitDx=0;exitDy=0;entryX=0.925;entryY=-0.013;entryDx=0;entryDy=0;entryPerimeter=0;" edge="1" parent="1" source="20g4zVHKDqV1X-s-3AL7-57" target="20g4zVHKDqV1X-s-3AL7-58">
          <mxGeometry width="50" height="50" relative="1" as="geometry">
            <mxPoint x="-60" y="-440" as="sourcePoint" />
            <mxPoint x="-10" y="-490" as="targetPoint" />
          </mxGeometry>
        </mxCell>
        <mxCell id="20g4zVHKDqV1X-s-3AL7-68" value="" style="endArrow=none;html=1;rounded=0;exitX=0.5;exitY=1;exitDx=0;exitDy=0;entryX=0.75;entryY=1;entryDx=0;entryDy=0;" edge="1" parent="1" source="20g4zVHKDqV1X-s-3AL7-57" target="20g4zVHKDqV1X-s-3AL7-77">
          <mxGeometry width="50" height="50" relative="1" as="geometry">
            <mxPoint x="-60" y="-410" as="sourcePoint" />
            <mxPoint x="-370" y="-740.0000000000001" as="targetPoint" />
            <Array as="points" />
          </mxGeometry>
        </mxCell>
        <mxCell id="20g4zVHKDqV1X-s-3AL7-69" value="is a" style="text;html=1;strokeColor=none;fillColor=none;align=center;verticalAlign=middle;whiteSpace=wrap;rounded=0;" vertex="1" parent="1">
          <mxGeometry x="-300" y="-680" width="60" height="30" as="geometry" />
        </mxCell>
        <mxCell id="20g4zVHKDqV1X-s-3AL7-75" value="card" style="shape=rhombus;perimeter=rhombusPerimeter;whiteSpace=wrap;html=1;align=center;" vertex="1" parent="1">
          <mxGeometry x="-360" y="-300" width="100" height="40" as="geometry" />
        </mxCell>
        <mxCell id="20g4zVHKDqV1X-s-3AL7-76" value="" style="endArrow=none;html=1;rounded=0;entryX=1;entryY=0.5;entryDx=0;entryDy=0;" edge="1" parent="1" target="20g4zVHKDqV1X-s-3AL7-75">
          <mxGeometry width="50" height="50" relative="1" as="geometry">
            <mxPoint x="-230" y="-280" as="sourcePoint" />
            <mxPoint x="-370" y="-400" as="targetPoint" />
            <Array as="points" />
          </mxGeometry>
        </mxCell>
        <mxCell id="20g4zVHKDqV1X-s-3AL7-81" value="ware_prod" style="shape=rhombus;perimeter=rhombusPerimeter;whiteSpace=wrap;html=1;align=center;" vertex="1" parent="1">
          <mxGeometry x="85" y="-350" width="120" height="60" as="geometry" />
        </mxCell>
        <mxCell id="20g4zVHKDqV1X-s-3AL7-82" value="" style="endArrow=none;html=1;rounded=0;exitX=0;exitY=0.5;exitDx=0;exitDy=0;entryX=0.5;entryY=0;entryDx=0;entryDy=0;" edge="1" parent="1" source="UyfyDT9492xOrgT1omKh-33" target="20g4zVHKDqV1X-s-3AL7-81">
          <mxGeometry width="50" height="50" relative="1" as="geometry">
            <mxPoint x="240" y="-385" as="sourcePoint" />
            <mxPoint x="145" y="-230" as="targetPoint" />
            <Array as="points">
              <mxPoint x="145" y="-385" />
            </Array>
          </mxGeometry>
        </mxCell>
        <mxCell id="20g4zVHKDqV1X-s-3AL7-84" value="" style="endArrow=none;html=1;rounded=0;" edge="1" parent="1">
          <mxGeometry relative="1" as="geometry">
            <mxPoint x="150" y="-350" as="sourcePoint" />
            <mxPoint x="240" y="-380" as="targetPoint" />
            <Array as="points">
              <mxPoint x="150" y="-380" />
            </Array>
          </mxGeometry>
        </mxCell>
        <mxCell id="20g4zVHKDqV1X-s-3AL7-86" value="" style="endArrow=none;html=1;rounded=0;entryX=0.138;entryY=0.636;entryDx=0;entryDy=0;entryPerimeter=0;exitX=1.002;exitY=0.375;exitDx=0;exitDy=0;exitPerimeter=0;" edge="1" parent="1" source="20g4zVHKDqV1X-s-3AL7-23" target="20g4zVHKDqV1X-s-3AL7-49">
          <mxGeometry relative="1" as="geometry">
            <mxPoint x="205" y="-180" as="sourcePoint" />
            <mxPoint x="340" y="-170" as="targetPoint" />
            <Array as="points" />
          </mxGeometry>
        </mxCell>
        <mxCell id="20g4zVHKDqV1X-s-3AL7-49" value="ware_prov" style="shape=rhombus;perimeter=rhombusPerimeter;whiteSpace=wrap;html=1;align=center;" vertex="1" parent="1">
          <mxGeometry x="337.5" y="-209.63" width="90" height="46.25" as="geometry" />
        </mxCell>
        <mxCell id="20g4zVHKDqV1X-s-3AL7-92" value="" style="endArrow=none;html=1;rounded=0;entryX=0;entryY=0.5;entryDx=0;entryDy=0;" edge="1" parent="1" target="UyfyDT9492xOrgT1omKh-29">
          <mxGeometry relative="1" as="geometry">
            <mxPoint x="46" y="-200" as="sourcePoint" />
            <mxPoint x="200" y="-70" as="targetPoint" />
            <Array as="points">
              <mxPoint x="46" y="-72" />
            </Array>
          </mxGeometry>
        </mxCell>
        <mxCell id="20g4zVHKDqV1X-s-3AL7-94" value="" style="endArrow=none;html=1;rounded=0;exitX=0.914;exitY=0.616;exitDx=0;exitDy=0;exitPerimeter=0;" edge="1" parent="1" source="20g4zVHKDqV1X-s-3AL7-75">
          <mxGeometry relative="1" as="geometry">
            <mxPoint x="-260" y="-274" as="sourcePoint" />
            <mxPoint x="-230" y="-275" as="targetPoint" />
            <Array as="points" />
          </mxGeometry>
        </mxCell>
        <mxCell id="20g4zVHKDqV1X-s-3AL7-95" value="" style="endArrow=none;html=1;rounded=0;entryX=0.564;entryY=-0.032;entryDx=0;entryDy=0;entryPerimeter=0;" edge="1" parent="1" target="UyfyDT9492xOrgT1omKh-24">
          <mxGeometry relative="1" as="geometry">
            <mxPoint x="-490" y="-890" as="sourcePoint" />
            <mxPoint x="-330" y="-890" as="targetPoint" />
            <Array as="points">
              <mxPoint x="390" y="-890" />
            </Array>
          </mxGeometry>
        </mxCell>
        <mxCell id="20g4zVHKDqV1X-s-3AL7-97" value="" style="endArrow=none;html=1;rounded=0;entryX=0;entryY=0.222;entryDx=0;entryDy=0;entryPerimeter=0;exitX=0.436;exitY=0.059;exitDx=0;exitDy=0;exitPerimeter=0;" edge="1" parent="1" source="20g4zVHKDqV1X-s-3AL7-8" target="UyfyDT9492xOrgT1omKh-27">
          <mxGeometry relative="1" as="geometry">
            <mxPoint x="150" y="-705" as="sourcePoint" />
            <mxPoint x="280" y="-730" as="targetPoint" />
            <Array as="points">
              <mxPoint x="152" y="-730" />
            </Array>
          </mxGeometry>
        </mxCell>
        <mxCell id="20g4zVHKDqV1X-s-3AL7-101" value="0 ...1" style="text;html=1;strokeColor=none;fillColor=none;align=center;verticalAlign=middle;whiteSpace=wrap;rounded=0;" vertex="1" parent="1">
          <mxGeometry x="140" y="-480" width="60" height="30" as="geometry" />
        </mxCell>
        <mxCell id="20g4zVHKDqV1X-s-3AL7-102" value="0 ...*" style="text;html=1;strokeColor=none;fillColor=none;align=center;verticalAlign=middle;whiteSpace=wrap;rounded=0;" vertex="1" parent="1">
          <mxGeometry y="-584" width="60" height="30" as="geometry" />
        </mxCell>
        <mxCell id="20g4zVHKDqV1X-s-3AL7-103" value="1.. 1" style="text;html=1;strokeColor=none;fillColor=none;align=center;verticalAlign=middle;whiteSpace=wrap;rounded=0;" vertex="1" parent="1">
          <mxGeometry x="-280" y="-305" width="60" height="30" as="geometry" />
        </mxCell>
        <mxCell id="20g4zVHKDqV1X-s-3AL7-104" value="0 ...*" style="text;html=1;strokeColor=none;fillColor=none;align=center;verticalAlign=middle;whiteSpace=wrap;rounded=0;" vertex="1" parent="1">
          <mxGeometry x="480" y="-215" width="60" height="30" as="geometry" />
        </mxCell>
        <mxCell id="20g4zVHKDqV1X-s-3AL7-105" value="0 ...*" style="text;html=1;strokeColor=none;fillColor=none;align=center;verticalAlign=middle;whiteSpace=wrap;rounded=0;" vertex="1" parent="1">
          <mxGeometry x="-270" y="-140" width="60" height="30" as="geometry" />
        </mxCell>
        <mxCell id="20g4zVHKDqV1X-s-3AL7-107" value="0 ...*" style="text;html=1;strokeColor=none;fillColor=none;align=center;verticalAlign=middle;whiteSpace=wrap;rounded=0;" vertex="1" parent="1">
          <mxGeometry x="-120" y="-599" width="60" height="30" as="geometry" />
        </mxCell>
        <mxCell id="20g4zVHKDqV1X-s-3AL7-108" value="0 ...*" style="text;html=1;strokeColor=none;fillColor=none;align=center;verticalAlign=middle;whiteSpace=wrap;rounded=0;" vertex="1" parent="1">
          <mxGeometry x="-10" y="-705" width="60" height="30" as="geometry" />
        </mxCell>
      </root>
    </mxGraphModel>
  </diagram>
</mxfile>
